<svg width="68" height="68" viewBox="0 0 68 68" fill="none" xmlns="http://www.w3.org/2000/svg">
<rect width="67.4761" height="67.4761" rx="33.738" fill="white"/>
<rect x="16.8906" y="14.6162" width="34.0509" height="34.5976" fill="#323232"/>
<path d="M52.5874 10H15.236C13.4468 10 12 11.4126 12 13.159V50.6645C12 52.4109 13.4468 53.832 15.236 53.832H52.5874C54.3767 53.832 55.832 52.4109 55.832 50.673V13.159C55.832 11.4126 54.3767 10 52.5874 10ZM25.0041 47.3514H18.4978V26.4284H25.0041V47.3514ZM21.7509 23.5777C19.662 23.5777 17.9755 21.8912 17.9755 19.8108C17.9755 17.7305 19.662 16.044 21.7509 16.044C23.8312 16.044 25.5177 17.7305 25.5177 19.8108C25.5177 21.8826 23.8312 23.5777 21.7509 23.5777ZM49.3514 47.3514H42.8536V37.181C42.8536 34.7583 42.8108 31.6335 39.4721 31.6335C36.0905 31.6335 35.5768 34.2788 35.5768 37.0098V47.3514H29.0876V26.4284H35.32V29.2878H35.4056C36.2703 27.6441 38.3934 25.9062 41.5524 25.9062C48.1357 25.9062 49.3514 30.2381 49.3514 35.8712V47.3514Z" fill="white"/>
</svg>
