<svg width="60" height="60" viewBox="0 0 60 60" fill="none" xmlns="http://www.w3.org/2000/svg">
<circle cx="30" cy="30" r="30" fill="white"/>
<path d="M30.7563 12.7676C32.6409 12.7388 34.5118 12.7537 36.3815 12.7388C36.4436 15.077 37.3923 17.1816 38.9016 18.7404L38.8993 18.7381C40.5238 20.2014 42.6376 21.1501 44.9678 21.3113L45 21.3136V27.1114C42.7987 27.0562 40.7287 26.5485 38.8625 25.6758L38.9569 25.7149C38.0543 25.2809 37.291 24.8353 36.5657 24.338L36.6255 24.3771C36.6117 28.5782 36.6394 32.7792 36.5968 36.9653C36.4782 39.0986 35.769 41.0443 34.6315 42.6688L34.6545 42.6331C32.7526 45.357 29.6718 47.145 26.1684 47.2509H26.1523C26.0107 47.2578 25.8437 47.2613 25.6756 47.2613C23.6839 47.2613 21.8223 46.7063 20.2358 45.7427L20.2819 45.7692C17.3944 44.0319 15.4027 41.0593 15.0343 37.602L15.0297 37.5548C15.0009 36.8352 14.9871 36.1157 15.0159 35.4111C15.58 29.9091 20.1898 25.6528 25.7931 25.6528C26.4228 25.6528 27.0399 25.7069 27.6397 25.8093L27.5753 25.8001C27.6041 27.9289 27.5177 30.0587 27.5177 32.1875C27.0307 32.0113 26.4689 31.9089 25.8829 31.9089C23.7323 31.9089 21.9029 33.2835 21.2259 35.2027L21.2156 35.2372C21.0624 35.7288 20.9738 36.2941 20.9738 36.879C20.9738 37.1161 20.9888 37.351 21.0164 37.5812L21.0141 37.5536C21.3963 39.9091 23.4157 41.6867 25.8506 41.6867C25.9209 41.6867 25.9899 41.6856 26.059 41.6821H26.0487C27.733 41.6315 29.1951 40.7254 30.0218 39.3865L30.0333 39.3657C30.3407 38.9375 30.5513 38.4194 30.6216 37.8564L30.6227 37.8403C30.7666 35.2649 30.7091 32.7044 30.7229 30.129C30.7367 24.3311 30.7091 18.547 30.7517 12.7641L30.7563 12.7676Z" fill="black"/>
</svg>
